<svg xmlns="http://www.w3.org/2000/svg" viewBox="0 0 300 96" role="img" aria-label="SATA logo">
  <defs>
    <linearGradient id="gold" x1="0" y1="0" x2="1" y2="1">
      <stop stop-color="#f4d991"/>
      <stop offset=".55" stop-color="#d7ad61"/>
      <stop offset="1" stop-color="#9b7133"/>
    </linearGradient>
  </defs>
  <rect width="300" height="96" rx="18" fill="#0c1110"/>
  <g transform="translate(18 15)">
    <path d="M33 2 62 18v32L33 66 4 50V18L33 2Z" fill="none" stroke="url(#gold)" stroke-width="4"/>
    <path d="M14 47 32 13l21 43H42l-4-9H27l-4 9H12l2-9Zm17-9h5l-3-7-2 7Z" fill="#fffaf0"/>
    <path d="M45 18h12v9h-8c-4 0-6 2-6 4 0 3 2 4 6 5l4 1c7 1 11 5 11 11 0 8-6 13-16 13H35v-9h13c3 0 5-1 5-4 0-2-2-3-5-4l-5-1c-7-1-11-6-11-12 0-8 5-13 13-13Z" fill="#0a756f"/>
  </g>
  <text x="98" y="54" fill="#fffaf0" font-family="Verdana, Arial, sans-serif" font-size="36" font-weight="800" letter-spacing="3">SATA</text>
  <text x="101" y="73" fill="#d7ad61" font-family="Verdana, Arial, sans-serif" font-size="10" font-weight="700" letter-spacing="2">DUBAI OPERATIONS ROOM</text>
</svg>
